<?xml version="1.0" encoding="UTF-8"?>
<svg xmlns="http://www.w3.org/2000/svg" xmlns:xlink="http://www.w3.org/1999/xlink" width="50px" height="50px" viewBox="0 0 50 50" version="1.1">
<g id="surface1">
<path style=" stroke:none;fill-rule:nonzero;fill:rgb(100%,100%,100%);fill-opacity:1;" d="M 6.246094 40.625 C 6.214844 40.625 6.179688 40.625 6.144531 40.621094 C 4.171875 40.425781 0.355469 38.910156 0.046875 34.558594 C -0.078125 26.007812 0.0859375 12.066406 0.0859375 11.925781 C 0.207031 10.648438 1.007812 9.375 2.484375 9.375 L 39.019531 9.375 C 39.230469 9.394531 48.070312 10.539062 49.742188 18.976562 C 50.480469 22.710938 49.609375 26.246094 47.285156 28.929688 C 44.796875 31.800781 40.898438 33.414062 36.464844 33.433594 C 36.21875 37.390625 34.0625 39.890625 30.308594 40.515625 C 22.761719 40.582031 6.25 40.625 6.25 40.625 Z M 38.894531 11.449219 L 2.484375 11.457031 C 2.261719 11.457031 2.167969 12.042969 2.164062 12.050781 C 2.167969 12.089844 2.007812 26.003906 2.128906 34.472656 C 2.371094 37.914062 5.839844 38.480469 6.308594 38.542969 C 7.417969 38.539062 23.015625 38.496094 30.132812 38.449219 C 32.988281 37.957031 34.484375 35.914062 34.402344 32.390625 C 34.398438 32.101562 34.511719 31.824219 34.722656 31.621094 C 34.929688 31.421875 35.214844 31.304688 35.503906 31.328125 C 39.730469 31.539062 43.449219 30.179688 45.710938 27.570312 C 47.609375 25.382812 48.316406 22.472656 47.703125 19.378906 C 46.320312 12.410156 38.972656 11.460938 38.894531 11.449219 Z M 18.300781 34.613281 C 18.042969 34.613281 17.785156 34.550781 17.550781 34.4375 C 17.160156 34.175781 17.058594 34.070312 17.058594 34.070312 C 16.605469 33.652344 16.144531 33.242188 15.679688 32.835938 C 12.792969 30.289062 9.890625 27.695312 8.914062 26.421875 C 7.140625 24.117188 6.597656 20.234375 8.8125 17.980469 C 9.902344 16.871094 11.527344 16.234375 13.351562 16.261719 C 15.152344 16.277344 16.890625 16.921875 18.273438 18.074219 C 19.566406 17.027344 22.335938 15.355469 25.582031 16.6875 C 27.433594 17.449219 28.679688 18.851562 29.089844 20.632812 C 29.546875 22.621094 28.902344 24.898438 27.410156 26.570312 C 24.90625 29.359375 19.535156 34.046875 19.308594 34.246094 C 19.03125 34.488281 18.671875 34.617188 18.300781 34.613281 Z M 17.953125 32.664062 C 17.941406 32.675781 17.929688 32.6875 17.917969 32.699219 Z M 18.507812 32.574219 L 18.527344 32.574219 Z M 10.296875 19.441406 C 8.785156 20.976562 9.480469 23.742188 10.5625 25.152344 C 11.503906 26.371094 15.117188 29.5625 17.058594 31.277344 C 17.578125 31.738281 18.011719 32.117188 18.285156 32.367188 C 19.5625 31.238281 23.804688 27.460938 25.859375 25.175781 C 26.890625 24.019531 27.363281 22.417969 27.058594 21.097656 C 26.800781 19.976562 26.019531 19.117188 24.792969 18.613281 C 21.707031 17.355469 19.058594 20.167969 19.035156 20.191406 C 18.835938 20.410156 18.574219 20.574219 18.269531 20.527344 C 17.984375 20.527344 17.710938 20.414062 17.515625 20.207031 C 16.382812 19.019531 14.898438 18.359375 13.332031 18.34375 C 12.148438 18.328125 10.996094 18.730469 10.296875 19.441406 Z M 36.855469 27.933594 C 36.035156 27.933594 35.523438 27.878906 35.484375 27.875 C 34.957031 27.816406 34.558594 27.371094 34.558594 26.839844 L 34.558594 16.003906 C 34.558594 15.429688 35.023438 14.960938 35.601562 14.960938 L 39.132812 14.960938 C 39.222656 14.960938 39.316406 14.976562 39.402344 14.996094 C 41.03125 15.433594 44.109375 17.253906 44.109375 21.035156 C 44.109375 24.515625 42.480469 26.785156 39.265625 27.78125 C 38.464844 27.882812 37.660156 27.933594 36.855469 27.933594 Z M 36.640625 25.855469 C 37.210938 25.867188 37.984375 25.851562 38.835938 25.753906 C 40.988281 25.066406 42.027344 23.601562 42.027344 21.035156 C 42.027344 18.230469 39.542969 17.234375 38.980469 17.042969 L 36.644531 17.042969 L 36.644531 25.855469 Z M 36.640625 25.855469 "/>
</g>
</svg>
