<?xml version="1.0" encoding="UTF-8"?>
<svg xmlns="http://www.w3.org/2000/svg" xmlns:xlink="http://www.w3.org/1999/xlink" width="50px" height="50px" viewBox="0 0 50 50" version="1.1">
<g id="surface1">
<path style=" stroke:none;fill-rule:nonzero;fill:rgb(100%,100%,100%);fill-opacity:1;" d="M 24.957031 0 C 11.800781 0 1.023438 10.117188 0 22.976562 L 13.421875 28.511719 C 14.558594 27.734375 15.933594 27.28125 17.410156 27.28125 C 17.546875 27.28125 17.675781 27.285156 17.808594 27.292969 L 23.777344 18.660156 L 23.777344 18.539062 C 23.777344 13.347656 28.011719 9.121094 33.21875 9.121094 C 38.429688 9.121094 42.664062 13.347656 42.664062 18.539062 C 42.664062 23.734375 38.429688 27.960938 33.21875 27.960938 C 33.148438 27.960938 33.078125 27.960938 33.007812 27.960938 L 24.492188 34.015625 C 24.496094 34.128906 24.5 34.242188 24.5 34.351562 C 24.5 38.25 21.320312 41.425781 17.410156 41.425781 C 13.980469 41.425781 11.109375 38.980469 10.460938 35.746094 L 0.859375 31.785156 C 3.835938 42.273438 13.492188 49.957031 24.957031 49.957031 C 38.789062 49.957031 50 38.773438 50 24.980469 C 50 11.183594 38.789062 0 24.957031 0 Z M 15.695312 37.902344 L 12.617188 36.632812 C 13.160156 37.765625 14.105469 38.714844 15.359375 39.234375 C 18.066406 40.359375 21.1875 39.078125 22.3125 36.378906 C 22.859375 35.070312 22.863281 33.628906 22.324219 32.316406 C 21.78125 31.003906 20.761719 29.984375 19.449219 29.4375 C 18.148438 28.898438 16.753906 28.917969 15.527344 29.378906 L 18.707031 30.691406 C 20.703125 31.519531 21.648438 33.808594 20.816406 35.796875 C 19.984375 37.789062 17.691406 38.730469 15.695312 37.902344 Z M 39.511719 18.539062 C 39.511719 15.082031 36.691406 12.261719 33.222656 12.261719 C 29.75 12.261719 26.925781 15.082031 26.925781 18.539062 C 26.925781 22 29.75 24.816406 33.222656 24.816406 C 36.691406 24.816406 39.511719 22 39.511719 18.539062 Z M 28.503906 18.53125 C 28.503906 15.925781 30.621094 13.816406 33.230469 13.816406 C 35.839844 13.816406 37.957031 15.925781 37.957031 18.53125 C 37.957031 21.132812 35.839844 23.246094 33.230469 23.246094 C 30.621094 23.246094 28.503906 21.132812 28.503906 18.53125 Z M 28.503906 18.53125 "/>
</g>
</svg>
